<?xml version="1.0" encoding="utf-8"?>
<!-- Generator: Adobe Illustrator 26.5.0, SVG Export Plug-In . SVG Version: 6.00 Build 0)  -->
<svg version="1.1" id="OBJECT" xmlns="http://www.w3.org/2000/svg" xmlns:xlink="http://www.w3.org/1999/xlink" x="0px" y="0px"
	 viewBox="0 0 512 512" style="enable-background:new 0 0 512 512;" xml:space="preserve">
<style type="text/css">
	.st0{fill:#FFFFFF;}
</style>
<path class="st0" d="M284.3,51.8c10.4,5.3,19,13.3,25.1,23.2c2.2,3.5,6.8,4.7,10.3,2.5s4.7-6.8,2.5-10.3
	c-7.5-12.3-18.3-22.3-31.1-28.8c-3.7-1.9-8.2-0.4-10.1,3.3C279.2,45.4,280.6,49.9,284.3,51.8L284.3,51.8z"/>
<path class="st0" d="M319.2,139.8c0-15.2-12.3-27.5-27.5-27.5s-27.5,12.3-27.5,27.5c0,4.1,3.4,7.5,7.5,7.5s7.5-3.4,7.5-7.5
	c0-6.9,5.6-12.5,12.5-12.5s12.5,5.6,12.5,12.5s-5.6,12.5-12.5,12.5l0,0c-4.1,0-7.5,3.4-7.5,7.5s3.4,7.5,7.5,7.5
	C306.9,167.2,319.2,154.9,319.2,139.8z"/>
<path class="st0" d="M226,50c-20.7,0-37.5,16.8-37.5,37.5S205.3,125,226,125s37.5-16.8,37.5-37.5C263.5,66.8,246.7,50,226,50z
	 M226,110c-12.4,0-22.5-10.1-22.5-22.5S213.6,65,226,65s22.5,10.1,22.5,22.5C248.5,99.9,238.4,110,226,110z"/>
<path class="st0" d="M454.5,177H452v-12.5c0-4.1-3.4-7.5-7.5-7.5h-40c-4.1,0-7.5,3.4-7.5,7.5V177h-59
	c38.4-45.3,32.8-113.1-12.5-151.5S212.4-7.3,174,38c-34,40.1-34,98.9,0,139h-16.5c-15.2,0-27.5,12.3-27.5,27.5v2.5H45v-2.5
	c0-4.1-3.4-7.5-7.5-7.5h-30c-4.1,0-7.5,3.4-7.5,7.5v60c0,4.1,3.4,7.5,7.5,7.5h30c4.1,0,7.5-3.4,7.5-7.5V262h85v2.5
	c0,15.2,12.3,27.5,27.5,27.5h51.6c2,12.6,9,23.8,19.4,31.2V367H186c-9.7,0-17.5,7.8-17.5,17.5v18.6L129,501.7
	c-1.5,3.8,0.3,8.2,4.1,9.7c0.9,0.4,1.9,0.5,2.9,0.5h30c2.8,0,5.4-1.6,6.7-4.1l47.9-95.9h3.6l9.3,93.2c0.4,3.8,3.6,6.7,7.5,6.8h30
	c3.9,0,7.1-2.9,7.5-6.8l9.3-93.2h3.6l47.9,95.9c1.3,2.5,3.9,4.1,6.7,4.1h30c4.1,0,7.5-3.3,7.5-7.4c0-1-0.2-1.9-0.5-2.9l-39.5-98.6
	v-18.6c0-9.7-7.8-17.5-17.5-17.5h-42.5v-43.8c10.4-7.4,17.4-18.6,19.4-31.2H397v12.5c0,4.1,3.4,7.5,7.5,7.5l0,0h40
	c4.1,0,7.5-3.4,7.5-7.5l0,0V292h2.5c31.8,0,57.5-25.7,57.5-57.5S486.3,177,454.5,177z M30,257H15v-45h15V257z M45,247v-25h85v25H45z
	 M163.5,107.5c0-51.1,41.4-92.5,92.5-92.5s92.5,41.4,92.5,92.5c0,26.6-11.5,52-31.5,69.6H195C175,159.5,163.5,134.1,163.5,107.5z
	 M161.4,497h-14.3l34-85h22.8L161.4,497z M264.2,497h-16.4l-8.5-85h33.4L264.2,497z M350.6,497l-42.5-85h22.8l34,85H350.6z
	 M328.5,384.5V397h-145v-12.5c0-1.4,1.1-2.5,2.5-2.5h140C327.4,382,328.5,383.1,328.5,384.5z M268.5,367h-25v-36.7
	c8.2,2.2,16.8,2.2,25,0V367z M256,317c-17.9,0-32.5-14.6-32.5-32.5S238.1,252,256,252s32.5,14.6,32.5,32.5
	C288.5,302.4,273.9,317,256,317z M256,237c-23.3,0-43.2,17-46.9,40h-51.6c-6.9,0-12.5-5.6-12.5-12.5v-60c0-6.9,5.6-12.5,12.5-12.5
	H337v85h-34.1C299.2,254,279.3,237,256,237z M352,277v-85h45v85H352z M437,297h-25V172h25V297z M454.5,277H452v-85h2.5
	c23.5,0,42.5,19,42.5,42.5S478,277,454.5,277z"/>
</svg>
