<?xml version="1.0" encoding="utf-8"?>
<!-- Generator: Adobe Illustrator 26.5.0, SVG Export Plug-In . SVG Version: 6.00 Build 0)  -->
<svg version="1.1" id="Capa_1" xmlns="http://www.w3.org/2000/svg" xmlns:xlink="http://www.w3.org/1999/xlink" x="0px" y="0px"
	 viewBox="0 0 512 512" style="enable-background:new 0 0 512 512;" xml:space="preserve">
<style type="text/css">
	.st0{fill:#FFFFFF;}
</style>
<g>
	<path class="st0" d="M454.9,49.3V24.4c0-7.3-5.9-13.1-13.1-13.1h-69.2C365.1,4.3,355.1,0,344,0H102.3c-23.1,0-42,18.8-42,42v420.5
		h-34c-4.1,0-7.5,3.4-7.5,7.5c0,23.1,18.8,42,42,42h214.3c23.1,0,42-18.8,42-42v-5.4H413c23.1,0,42-18.8,42-42v-3.3
		c21.2-0.9,38.2-18.4,38.2-39.9V89.1C493.2,67.7,476.2,50.2,454.9,49.3L454.9,49.3z M439.9,49.2H386V42c0-5.5-1.1-10.8-3-15.7h57
		L439.9,49.2L439.9,49.2z M317.1,49.2V42c0-14.9,12.1-27,27-27s27,12.1,27,27v7.3H317.1z M60.8,497c-12.3,0-22.6-8.2-25.9-19.5
		h198.9c1.3,7.3,4.6,14,9.2,19.5H60.8z M317.1,419.4H371v3.3c0,10.3,3.7,19.7,9.8,27h-63.8L317.1,419.4L317.1,419.4z M413,449.6
		c-14.9,0-27-12.1-27-27v-3.3h53.9v3.3C439.9,437.5,427.8,449.6,413,449.6z M478.2,379.5c0,13.7-11.2,24.9-24.9,24.9H317.1v-15
		h136.2c5.4,0,9.9-4.4,9.9-9.9v-195c0-4.1-3.4-7.5-7.5-7.5s-7.5,3.4-7.5,7.5v189.8H317.1v-44.8c0-4.1-3.4-7.5-7.5-7.5
		c-4.1,0-7.5,3.4-7.5,7.5V470c0,14.9-12.1,27-27,27s-27-12.1-27-27c0-4.1-3.4-7.5-7.5-7.5H75.3V42c0-14.9,12.1-27,27-27h209.6
		c-6.1,7.3-9.8,16.7-9.8,27v255.6c0,4.1,3.4,7.5,7.5,7.5c4.1,0,7.5-3.4,7.5-7.5V94.3h21.3l0.3,1.4c1.6,8.4,8.9,14.4,17.4,14.4H403
		c8.5,0,15.8-6.1,17.4-14.4l0.3-1.4h27.5v58.3c0,4.1,3.4,7.5,7.5,7.5s7.5-3.4,7.5-7.5V92.8c0-7.5-6.1-13.6-13.6-13.6h-35.1
		c-3.6,0-6.7,2.6-7.4,6.1l-1.4,7.5c-0.2,1.3-1.4,2.2-2.7,2.2H356c-1.3,0-2.4-0.9-2.7-2.2l-1.4-7.5c-0.7-3.5-3.8-6.1-7.4-6.1h-27.5
		v-15h136.2c13.7,0,24.9,11.2,24.9,24.9L478.2,379.5z"/>
	<path class="st0" d="M260.6,67.5H111.2c-4.1,0-7.5,3.4-7.5,7.5s3.4,7.5,7.5,7.5h149.3c4.1,0,7.5-3.4,7.5-7.5S264.7,67.5,260.6,67.5
		z"/>
	<path class="st0" d="M111.2,131.4H137c4.1,0,7.5-3.4,7.5-7.5c0-4.1-3.4-7.5-7.5-7.5h-25.7c-4.1,0-7.5,3.4-7.5,7.5
		C103.7,128,107.1,131.4,111.2,131.4z"/>
	<path class="st0" d="M260.6,116.4h-91.6c-4.1,0-7.5,3.4-7.5,7.5s3.4,7.5,7.5,7.5h91.6c4.1,0,7.5-3.4,7.5-7.5
		C268.1,119.7,264.7,116.4,260.6,116.4z"/>
	<path class="st0" d="M260.6,165.2H111.2c-4.1,0-7.5,3.4-7.5,7.5c0,4.1,3.4,7.5,7.5,7.5h149.3c4.1,0,7.5-3.4,7.5-7.5
		C268.1,168.6,264.7,165.2,260.6,165.2z"/>
	<path class="st0" d="M260.6,214.1H111.2c-4.1,0-7.5,3.4-7.5,7.5c0,4.1,3.4,7.5,7.5,7.5h149.3c4.1,0,7.5-3.4,7.5-7.5
		C268.1,217.4,264.7,214.1,260.6,214.1z"/>
	<path class="st0" d="M260.6,262.9H111.2c-4.1,0-7.5,3.4-7.5,7.5c0,4.1,3.4,7.5,7.5,7.5h149.3c4.1,0,7.5-3.4,7.5-7.5
		C268.1,266.3,264.7,262.9,260.6,262.9z"/>
	<path class="st0" d="M260.6,311.8H111.2c-4.1,0-7.5,3.4-7.5,7.5c0,4.1,3.4,7.5,7.5,7.5h149.3c4.1,0,7.5-3.4,7.5-7.5
		C268.1,315.1,264.7,311.8,260.6,311.8z"/>
	<path class="st0" d="M260.6,360.6H111.2c-4.1,0-7.5,3.4-7.5,7.5c0,4.1,3.4,7.5,7.5,7.5h149.3c4.1,0,7.5-3.4,7.5-7.5
		C268.1,364,264.7,360.6,260.6,360.6z"/>
</g>
</svg>
