<?xml version="1.0" encoding="utf-8"?>
<!-- Generator: Adobe Illustrator 26.5.0, SVG Export Plug-In . SVG Version: 6.00 Build 0)  -->
<svg version="1.1" id="Layer_1" xmlns="http://www.w3.org/2000/svg" xmlns:xlink="http://www.w3.org/1999/xlink" x="0px" y="0px"
	 viewBox="0 0 512 512" style="enable-background:new 0 0 512 512;" xml:space="preserve">
<style type="text/css">
	.st0{fill:#FFFFFF;}
</style>
<g>
	<path class="st0" d="M449.8,267.3h-73.1c-9.7,0-9.7,15,0,15h73.1C459.5,282.3,459.5,267.3,449.8,267.3z"/>
	<path class="st0" d="M449.8,311.4h-73.1c-9.7,0-9.7,15,0,15h73.1C459.5,326.4,459.5,311.4,449.8,311.4z"/>
	<path class="st0" d="M449.8,355.6h-73.1c-9.7,0-9.7,15,0,15h73.1C459.5,370.6,459.5,355.6,449.8,355.6z"/>
	<path class="st0" d="M449.8,399.7h-73.1c-9.7,0-9.7,15,0,15h73.1C459.5,414.7,459.5,399.7,449.8,399.7z"/>
	<path class="st0" d="M267.3,399.7h-73.1c-9.7,0-9.7,15,0,15h73.1C277,414.7,277,399.7,267.3,399.7z"/>
</g>
<path class="st0" d="M78.1,322.8c-4.1,0-7.5,3.4-7.5,7.5v12.4c0,4.1,3.4,7.5,7.5,7.5s7.5-3.4,7.5-7.5v-12.4
	C85.6,326.2,82.3,322.8,78.1,322.8z"/>
<path class="st0" d="M480.6,201.9H359.9c-15.8,0-29.8,8.1-37.9,20.4c-3.7-5.6-8.7-10.5-14.6-14v-2c9.2-3.9,15.7-13,15.7-23.7v-14.1
	c28.5-15.7,46.7-46.1,46.7-78.8c0-24.8-10.4-48.8-28.6-65.7C322.7,6.9,298.7-1.5,273.5,0.2c-13.6,1-26.6,4.9-38.5,11.9
	c-8.4,4.9-0.8,17.8,7.5,13c9.9-5.7,20.6-9.1,32-9.9c21-1.5,41.1,5.6,56.4,19.9c15.1,14.1,23.8,34.1,23.8,54.7
	c0,28.6-16.6,55.1-42.4,67.5c-2.6,1.2-4.2,3.9-4.2,6.8v18.6c0,5.9-4.8,10.7-10.7,10.7h-10v-74c9.2-1.5,17.6-5.9,24.4-12.6
	c6.9-6.9-3.8-17.5-10.6-10.6c-5.7,5.7-13.2,8.8-21.3,8.8s-15.6-3.1-21.3-8.8c-6.9-6.9-17.5,3.8-10.6,10.6c6.7,6.7,15.2,11,24.4,12.6
	v74h-10c-5.9,0-10.7-4.8-10.7-10.7V164c0-2.9-1.7-5.5-4.2-6.8c-27.8-13.4-44.4-42-42.2-72.8c0.9-12.5,5-24.8,11.9-35.4
	c5.3-8.1-7.2-16.3-12.6-8.2c-8.3,12.7-13.3,27.5-14.3,42.5c-0.2,3.2-0.3,6.3-0.2,9.4c-4.4-1.6-9-2.4-13.7-2.4
	c-13.5,0-25.5,6.7-32.8,16.9c-7.3-10.2-19.3-16.9-32.8-16.9c-22.2,0-40.3,18.1-40.3,40.3c0,0.3,0,0.7,0,1.1
	c-20.4,2.8-36.2,20.4-36.2,41.6v15.4C14.9,192.3,0,209.5,0,230.1v22.5c0,20.6,14.9,37.8,34.5,41.3v15.4c0,21.2,15.8,38.8,36.2,41.6
	c0,0.4,0,0.7,0,1.1c0,22.2,18.1,40.3,40.3,40.3c7.7,0,14.9-2.2,21.1-6v94.4c0,17.3,14.1,31.4,31.4,31.4H411c9.7,0,9.7-15,0-15h-80.5
	c3.3-13.1,15.3-22.9,29.4-22.9H497v6.5c0,9-7.3,16.4-16.4,16.4h-30.4c-9.7,0-9.7,15,0,15h30.4c17.3,0,31.4-14.1,31.4-31.4V233.3
	C512,216,497.9,201.9,480.6,201.9L480.6,201.9z M136.2,352c0,13.9-11.3,25.3-25.3,25.3S85.7,365.9,85.7,352c0-2.7-0.1-21.8-0.1-21.8
	c0-9.7-15-9.7-15,0v5.5c-12.1-2.7-21.2-13.5-21.2-26.3v-26.7c0-13.2,10.7-23.9,23.9-23.9s23.9,10.7,23.9,23.9v14.6
	c0,9.7,15,9.7,15,0v-14.6c0-21.4-17.4-38.9-38.9-38.9c-20.1,0-36.6,15.3-38.7,34.8c-11.4-3.2-19.7-13.6-19.7-26v-22.5
	c0-14.9,12.1-27,27-27c11,0,22.4,0.2,33.6,0.2c20.2,0,36.7-16.4,36.7-36.7c0-9.7-15-9.7-15,0c0,11.4-8.9,20.8-20.1,21.6
	c-0.5-0.1-1-0.2-1.6-0.2H49.5v-14.8c0-14.9,12.1-27,27-27c6.8,0,13.7,0.1,20.5,0.1c9.7,0,9.7-15,0-15H85.7c0-0.3,0-0.5,0-0.7
	c0-13.9,11.3-25.3,25.3-25.3s25.3,11.3,25.3,25.3L136.2,352z M267.5,208.3h24.9V226c0,3.9-3.1,7-7,7h-10.9c-3.9,0-7-3.1-7-7
	L267.5,208.3z M151.2,130.7c0-13.9,11.3-25.3,25.3-25.3c5.9,0,11.7,2.1,16.2,5.9c1.7,7,4.3,13.8,7.6,20.1h-9.8c-9.7,0-9.7,15,0,15
	h18.8c0.3,0,0.5,0,0.8,0c7.2,8.9,16.2,16.5,26.7,22.2c0,6.3-0.8,13.3,0.6,19.5h-25.5c-11.6,0-21.7-9.5-21.7-21.4c0-9.7-15-9.7-15,0
	c0,20.2,16.4,36.7,36.7,36.7c11.1,0,24,1.6,34.9-0.3c1.7,1.4,3.7,2.5,5.7,3.4V226c0,11.4,8.8,20.9,20,21.9v4.7
	c0,12.4-8.3,22.8-19.7,26c-2-19.5-18.6-34.8-38.7-34.8c-21.4,0-38.9,17.4-38.9,38.9v14.6c0,9.7,15,9.7,15,0v-14.6
	c0-13.2,10.7-23.9,23.9-23.9s23.9,10.7,23.9,23.9v26.7c0,12.9-9.1,23.7-21.2,26.4v-5.4c0-4.1-3.4-7.5-7.5-7.5s-7.5,3.4-7.5,7.5
	c0,0,0,18.8,0,21.7c0,13.9-11.3,25.3-25.3,25.3s-25.3-11.3-25.3-25.3L151.2,130.7L151.2,130.7z M163.4,497c-9,0-16.4-7.3-16.4-16.4
	v-6.5h137.1c14.2,0,26.1,9.7,29.4,22.9L163.4,497L163.4,497z M314.5,470.8c-8-7.3-18.7-11.7-30.4-11.7H147v-79.7
	c7.4,7.9,17.8,12.8,29.4,12.8c15.5,0,29-8.8,35.7-21.7h55.1c9.7,0,9.7-15,0-15h-50.7c0.1-1.2,0.2-2.4,0.2-3.6c0-0.3,0-0.7,0-1.1
	c14.6-2,26.7-11.5,32.6-24.5h18c9.7,0,9.7-15,0-15h-14.4c0-0.7,0.1-1.4,0.1-2.1v-15.4c19.6-3.5,34.5-20.7,34.5-41.3v-4.7
	c10.6-1,19.1-9.5,19.9-20.2c4.5,5.4,7.2,12.3,7.2,19.6V470.8z M497,459.1H359.9c-11.7,0-22.3,4.4-30.4,11.7V247.3
	c0-16.7,13.6-30.4,30.4-30.4h120.8c9,0,16.4,7.3,16.4,16.4L497,459.1L497,459.1z"/>
</svg>
